<svg width="510" height="510" viewBox="0 0 510 510" fill="none" xmlns="http://www.w3.org/2000/svg">
<path d="M0 90C0 40.2944 40.2944 0 90 0H420C469.706 0 510 40.2944 510 90V420C510 469.706 469.706 510 420 510H90C40.2944 510 0 469.706 0 420V90Z" fill="white"/>
<path d="M390.603 109.785C367.74 109.785 352.546 116.638 343.263 123.149C339.642 119.83 335.729 116.761 331.506 113.961C311.527 100.716 285.626 94 254.523 94C223.42 94 197.52 100.716 177.541 113.962C173.318 116.762 169.406 119.831 165.784 123.15C156.501 116.639 141.308 109.786 118.444 109.786C76.8437 109.785 43 142.598 43 182.931C43 206.933 55.3031 219.492 67.2004 231.637C74.9995 239.598 83.0639 247.832 89.6624 260.695C90.7506 262.817 91.7768 264.879 92.7692 266.869C101.634 284.673 110.801 303.081 137.54 303.081C153.559 303.081 165.855 294.499 173.54 287.012C174.893 288.114 176.285 289.237 177.718 290.393C190.738 300.891 212.53 318.464 212.53 330.118C212.53 334.486 211.571 335.332 208.83 336.634C203.022 339.393 191.984 340.734 175.083 340.734H162.133V415.516H219.738C275.767 415.516 284.054 385.456 292.067 356.386C298.201 334.139 305.135 309.057 335.205 286.716C342.868 294.27 355.277 303.081 371.507 303.081C398.248 303.081 407.414 284.673 416.278 266.871C417.269 264.881 418.295 262.818 419.384 260.696C425.984 247.831 434.048 239.597 441.847 231.637C453.745 219.492 466.047 206.934 466.047 182.931C466.047 142.598 432.203 109.785 390.603 109.785ZM137.539 276.109C127.424 276.109 124.776 272.561 115.76 254.453C114.722 252.37 113.646 250.21 112.507 247.988C104.034 231.468 93.6632 220.882 85.3295 212.375C73.9378 200.744 68.9009 195.09 68.9009 182.931C68.9009 171.295 73.9419 159.676 82.7309 151.056C92.1313 141.836 104.814 136.758 118.444 136.758C133.159 136.758 142.92 140.445 148.898 143.978C138.555 161.484 133.339 183.275 133.339 209.167C133.339 237.117 142.277 255.148 154.174 268.886C150.023 272.525 144.235 276.109 137.539 276.109ZM325.23 261.132C283.502 289.708 274.064 323.945 267.172 348.944C259.676 376.133 256.255 388.542 219.737 388.542H188.032V367.425C202.253 366.735 212.037 364.76 219.578 361.178C231.912 355.319 238.43 344.58 238.43 330.12C238.43 305.235 213.559 285.181 193.573 269.066C190.418 266.523 187.437 264.119 184.898 261.958C168.647 248.126 159.24 235.055 159.24 209.168C159.24 174.786 169.776 151.087 191.451 136.715C206.984 126.418 228.794 120.973 254.523 120.973C280.253 120.973 302.062 126.418 317.596 136.715C339.271 151.087 349.808 174.786 349.808 209.168C349.808 232.152 341.309 250.12 325.23 261.132ZM423.717 212.375C415.385 220.881 405.012 231.467 396.54 247.987C395.401 250.21 394.325 252.37 393.286 254.454C384.27 272.56 381.622 276.108 371.507 276.108C365.028 276.108 359.443 272.816 355.349 269.34C368.594 253.693 375.708 232.972 375.708 209.167C375.708 183.277 370.493 161.489 360.152 143.984C366.124 140.475 375.916 136.758 390.603 136.758C404.232 136.758 416.916 141.835 426.316 151.055C435.105 159.675 440.146 171.294 440.146 182.931C440.146 195.09 435.109 200.745 423.717 212.375Z" fill="black"/>
</svg>
