<svg width="512" height="512" viewBox="0 0 512 512" fill="none" xmlns="http://www.w3.org/2000/svg">
<rect width="512" height="512" rx="40" fill="white"/>
<path d="M456 155.2C456 120.477 456 103.115 449.242 89.8526C443.298 78.1865 433.813 68.7017 422.147 62.7576C408.885 56 391.523 56 356.8 56H155.2C120.477 56 103.115 56 89.8526 62.7576C78.1865 68.7017 68.7017 78.1865 62.7576 89.8526C56 103.115 56 120.477 56 155.2V408.83C56 434.881 77.1186 456 103.17 456V456C129.221 456 150.34 434.881 150.34 408.83V379.585C150.34 366.19 150.34 359.493 151.37 353.911C156.037 328.64 175.81 308.867 201.081 304.201C206.663 303.17 213.36 303.17 226.755 303.17H356.8C391.523 303.17 408.885 303.17 422.147 296.412C433.813 290.468 443.298 280.983 449.242 269.317C456 256.055 456 238.693 456 203.97V155.2Z" fill="black"/>
<rect x="359.784" y="361.658" width="94.3396" height="94.3396" rx="47.1698" fill="black"/>
<rect x="206.952" y="361.658" width="94.3396" height="94.3396" rx="47.1698" fill="black"/>
</svg>
